<?xml version="1.0" encoding="UTF-8" standalone="no"?>
<svg xmlns="http://www.w3.org/2000/svg"
     contentStyleType="text/css" height="365px" preserveAspectRatio="none"
     style="width:411px;height:365px;background:#FFFFFF;" version="1.1" viewBox="0 0 411 365"
     width="411px" zoomAndPan="magnify"><defs/><g><rect fill="none" height="26.4883" id="_title" style="stroke:none;stroke-width:1.0;" width="87" x="184.75" y="10"/><text fill="#000000" font-family="sans-serif" font-size="14" font-weight="bold" lengthAdjust="spacing" textLength="77" x="189.75" y="28.5352">Basic Read</text><rect fill="none" height="85.9316" style="stroke:#000000;stroke-width:1.5;" width="376.5" x="8" y="85.9766"/><rect fill="none" height="85.9316" style="stroke:#000000;stroke-width:1.5;" width="397.5" x="8" y="248.5293"/><line style="stroke:#181818;stroke-width:0.5;stroke-dasharray:5.0,5.0;" x1="59.5" x2="59.5" y1="73.9766" y2="358.4609"/><rect fill="#FFFFFF" height="29.3105" style="stroke:#181818;stroke-width:1.0;" width="10" x="54.5" y="134.5977"/><rect fill="#FFFFFF" height="29.3105" style="stroke:#181818;stroke-width:1.0;" width="10" x="54.5" y="207.2188"/><rect fill="#FFFFFF" height="29.3105" style="stroke:#181818;stroke-width:1.0;" width="10" x="54.5" y="297.1504"/><line style="stroke:#181818;stroke-width:0.5;stroke-dasharray:5.0,5.0;" x1="368.5" x2="368.5" y1="73.9766" y2="358.4609"/><rect fill="#FFFFFF" height="257.4844" style="stroke:#181818;stroke-width:1.0;" width="10" x="363.5" y="81.9766"/><rect fill="#E2E2F0" height="30.4883" rx="2.5" ry="2.5" style="stroke:#181818;stroke-width:0.5;" width="71" x="24" y="42.4883"/><text fill="#000000" font-family="sans-serif" font-size="14" lengthAdjust="spacing" textLength="57" x="31" y="63.0234">Gateway</text><rect fill="#E2E2F0" height="30.4883" rx="2.5" ry="2.5" style="stroke:#181818;stroke-width:0.5;" width="42" x="347.5" y="42.4883"/><text fill="#000000" font-family="sans-serif" font-size="14" lengthAdjust="spacing" textLength="28" x="354.5" y="63.0234">App</text><path d="M8,85.9766 L75,85.9766 L75,93.2871 L65,103.2871 L8,103.2871 L8,85.9766 " fill="#EEEEEE" style="stroke:#000000;stroke-width:1.5;"/><rect fill="none" height="85.9316" style="stroke:#000000;stroke-width:1.5;" width="376.5" x="8" y="85.9766"/><text fill="#000000" font-family="sans-serif" font-size="13" font-weight="bold" lengthAdjust="spacing" textLength="22" x="23" y="99.5449">opt</text><text fill="#000000" font-family="sans-serif" font-size="11" font-weight="bold" lengthAdjust="spacing" textLength="111" x="90" y="98.6113">[not already locked]</text><polygon fill="#181818" points="75.5,130.5977,65.5,134.5977,75.5,138.5977,71.5,134.5977" style="stroke:#181818;stroke-width:1.0;"/><line style="stroke:#181818;stroke-width:1.0;" x1="69.5" x2="362.5" y1="134.5977" y2="134.5977"/><text fill="#000000" font-family="sans-serif" font-size="13" lengthAdjust="spacing" textLength="74" x="81.5" y="129.8555">POST /state</text><text fill="#000000" font-family="sans-serif" font-size="13" font-style="italic" lengthAdjust="spacing" textLength="116" x="159.5" y="129.8555">(undefined "write")</text><polygon fill="#181818" points="351.5,159.9082,361.5,163.9082,351.5,167.9082,355.5,163.9082" style="stroke:#181818;stroke-width:1.0;"/><line style="stroke:#181818;stroke-width:1.0;stroke-dasharray:2.0,2.0;" x1="64.5" x2="357.5" y1="163.9082" y2="163.9082"/><text fill="#000000" font-family="sans-serif" font-size="13" lengthAdjust="spacing" textLength="280" x="71.5" y="159.166">201 Created ETag: "1" Location: ~/state?lock</text><polygon fill="#181818" points="75.5,203.2188,65.5,207.2188,75.5,211.2188,71.5,207.2188" style="stroke:#181818;stroke-width:1.0;"/><line style="stroke:#181818;stroke-width:1.0;" x1="69.5" x2="362.5" y1="207.2188" y2="207.2188"/><text fill="#000000" font-family="sans-serif" font-size="13" lengthAdjust="spacing" textLength="237" x="81.5" y="202.4766">GET ~/state?query={ ... } If-Match: "1"</text><polygon fill="#181818" points="351.5,232.5293,361.5,236.5293,351.5,240.5293,355.5,236.5293" style="stroke:#181818;stroke-width:1.0;"/><line style="stroke:#181818;stroke-width:1.0;stroke-dasharray:2.0,2.0;" x1="64.5" x2="357.5" y1="236.5293" y2="236.5293"/><text fill="#000000" font-family="sans-serif" font-size="13" lengthAdjust="spacing" textLength="245" x="71.5" y="231.7871">200 OK: &lt;&lt;chunked&gt;&gt; Subject stream</text><path d="M8,248.5293 L70,248.5293 L70,255.8398 L60,265.8398 L8,265.8398 L8,248.5293 " fill="#EEEEEE" style="stroke:#000000;stroke-width:1.5;"/><rect fill="none" height="85.9316" style="stroke:#000000;stroke-width:1.5;" width="397.5" x="8" y="248.5293"/><text fill="#000000" font-family="sans-serif" font-size="13" font-weight="bold" lengthAdjust="spacing" textLength="17" x="23" y="262.0977">alt</text><text fill="#000000" font-family="sans-serif" font-size="11" font-weight="bold" lengthAdjust="spacing" textLength="58" x="85" y="261.1641">[if locked]</text><polygon fill="#181818" points="75.5,293.1504,65.5,297.1504,75.5,301.1504,71.5,297.1504" style="stroke:#181818;stroke-width:1.0;"/><line style="stroke:#181818;stroke-width:1.0;" x1="69.5" x2="362.5" y1="297.1504" y2="297.1504"/><text fill="#000000" font-family="sans-serif" font-size="13" lengthAdjust="spacing" textLength="213" x="81.5" y="292.4082">DELETE ~/state?lock If-Match: "1"</text><polygon fill="#181818" points="351.5,322.4609,361.5,326.4609,351.5,330.4609,355.5,326.4609" style="stroke:#181818;stroke-width:1.0;"/><line style="stroke:#181818;stroke-width:1.0;stroke-dasharray:2.0,2.0;" x1="64.5" x2="357.5" y1="326.4609" y2="326.4609"/><text fill="#000000" font-family="sans-serif" font-size="13" lengthAdjust="spacing" textLength="46" x="71.5" y="321.7188">200 OK</text><!--MD5=[1d3daad9c80cd59a44120b370b4bdb9c]
@startuml
'https://plantuml.com/sequence-diagram
!pragma teoz true
hide footbox

title: Basic Read

participant Gateway as gw
participant "App" as app

activate app
opt not already locked
app -> gw ++: POST ~/state //(undefined "write")//
return 201 Created ETag: "1" Location: \~/state?lock
end opt
app -> gw ++: GET \~/state?query={ ... } If-Match: "1"
'Note that other operations on the domain can happen independently
return 200 OK: <<chunked>> Subject stream
alt if locked
app -> gw ++: DELETE \~/state?lock If-Match: "1"
return 200 OK
deactivate app
end alt

@enduml

@startuml
!pragma teoz true
hide footbox

title: Basic Read

participant Gateway as gw
participant "App" as app

activate app
opt not already locked
app -> gw ++: POST ~/state //(undefined "write")//
return 201 Created ETag: "1" Location: \~/state?lock
end opt
app -> gw ++: GET \~/state?query={ ... } If-Match: "1"
return 200 OK: <<chunked>> Subject stream
alt if locked
app -> gw ++: DELETE \~/state?lock If-Match: "1"
return 200 OK
deactivate app
end alt

@enduml

PlantUML version 1.2022.8(Sun Sep 25 10:00:33 BST 2022)
(GPL source distribution)
Java Runtime: OpenJDK Runtime Environment
JVM: OpenJDK 64-Bit Server VM
Default Encoding: UTF-8
Language: en
Country: GB
--></g></svg>