<?xml version="1.0" encoding="UTF-8" standalone="no"?>
<svg xmlns="http://www.w3.org/2000/svg"
     contentStyleType="text/css" height="679px" preserveAspectRatio="none"
     style="width:670px;height:679px;background:#FFFFFF;" version="1.1" viewBox="0 0 670 679"
     width="670px" zoomAndPan="magnify"><defs/><g><!--MD5=[8699c0c8e953ee53654a072cc875bfb4]
cluster Browser--><g id="cluster_Browser"><polygon fill="none" points="48.46,16,58.46,6,258.46,6,258.46,509,248.46,519,48.46,519,48.46,16" style="stroke:#181818;stroke-width:1.0;"/><line style="stroke:#181818;stroke-width:1.0;" x1="248.46" x2="258.46" y1="16" y2="6"/><line style="stroke:#181818;stroke-width:1.0;" x1="48.46" x2="248.46" y1="16" y2="16"/><line style="stroke:#181818;stroke-width:1.0;" x1="248.46" x2="248.46" y1="16" y2="519"/><text fill="#000000" font-family="sans-serif" font-size="14" font-weight="bold" lengthAdjust="spacing" textLength="58" x="120.46" y="32.5352">Browser</text></g><!--MD5=[d3c595dc7835f149e458c44ed889a37a]
cluster page--><g id="cluster_page"><rect fill="none" height="285" rx="2.5" ry="2.5" style="stroke:#181818;stroke-width:1.0;" width="162" x="72.46" y="54"/><text fill="#000000" font-family="sans-serif" font-size="14" font-weight="bold" lengthAdjust="spacing" textLength="34" x="136.46" y="69.5352">page</text></g><!--MD5=[84d204d48e0bf0e71c948c7acde494e4]
cluster App Service Tier--><g id="cluster_App Service Tier"><polygon fill="none" points="282.46,198,292.46,188,509.46,188,509.46,536,499.46,546,282.46,546,282.46,198" style="stroke:#181818;stroke-width:1.0;"/><line style="stroke:#181818;stroke-width:1.0;" x1="499.46" x2="509.46" y1="198" y2="188"/><line style="stroke:#181818;stroke-width:1.0;" x1="282.46" x2="499.46" y1="198" y2="198"/><line style="stroke:#181818;stroke-width:1.0;" x1="499.46" x2="499.46" y1="198" y2="546"/><text fill="#000000" font-family="sans-serif" font-size="14" font-weight="bold" lengthAdjust="spacing" textLength="117" x="333.46" y="214.5352">App Service Tier</text></g><!--MD5=[000a823102ee8a4c19dd1dfc24a70275]
cluster App Service\nContainer--><g id="cluster_App Service\nContainer"><rect fill="none" height="103" rx="2.5" ry="2.5" style="stroke:#181818;stroke-width:1.0;" width="132" x="306.46" y="236"/><text fill="#000000" font-family="sans-serif" font-size="14" font-weight="bold" lengthAdjust="spacing" textLength="83" x="330.96" y="251.5352">App Service</text><text fill="#000000" font-family="sans-serif" font-size="14" font-weight="bold" lengthAdjust="spacing" textLength="70" x="337.46" y="268.0234">Container</text></g><!--MD5=[a96875dd8cb2e433dc952b8d34d153d3]
cluster gw--><g id="cluster_gw"><rect fill="#90EE90" height="103" rx="2.5" ry="2.5" style="stroke:#181818;stroke-width:1.0;" width="163" x="314.46" y="411"/><text fill="#000000" font-family="sans-serif" font-size="14" font-weight="bold" lengthAdjust="spacing" textLength="102" x="344.96" y="426.5352">m-ld Gateway</text></g><g id="cluster_##15"><path d="M109.6373,605.6472 C114.5113,599.955 118.7014,600.1673 122.9504,606.348 C127.232,599.0869 132.7788,598.267 137.7082,605.6972 C139.7862,598.463 145.9885,598.376 150.0259,603.7889 C154.1706,597.5998 158.3015,598.5982 162.5022,603.7271 C165.4341,595.5686 171.067,595.0051 176.2622,601.6188 C180.2091,594.7938 184.5225,595.4615 188.6587,601.4354 C191.9277,594.5926 197.4307,593.4312 201.8478,600.3337 C206.0185,595.116 211.1061,595.6711 213.6387,602.0055 C217.9182,595.3644 223.4984,596.3604 227.2981,602.5175 C230.4384,595.4781 236.4954,596.368 240.4124,601.6937 C245.4967,595.3112 249.4302,597.2111 253.0989,603.1511 C258.2985,597.9945 262.724,599.4935 265.721,605.6159 C270.6347,600.3401 275.3927,599.256 279.236,606.7489 C283.8465,599.5132 289.8435,599.7433 293.614,607.5517 C299.4231,610.9456 299.3519,615.4092 293.5588,618.7459 C302.1436,622.4313 302.8332,627.4485 295.5564,633.3096 C301.0513,637.6475 302.2286,642.1121 295.3074,646.2103 C300.9665,651.0803 298.5238,655.2041 292.9788,657.8287 C289.4599,664.6001 285.3197,665.3652 280.2104,659.4264 C276.9555,665.7568 271.8409,666.8817 266.5933,661.8052 C263.4594,667.4806 258.2704,668.8484 253.9362,663.1398 C249.8925,669.0055 245.1595,668.9346 240.6211,663.7351 C236.9065,669.2011 231.4217,669.2506 228.1659,663.2373 C225.2542,670.2558 219.8708,670.1818 215.5983,664.594 C212.3938,671.3092 205.5857,672.7053 200.9045,666.2403 C196.2557,672.4104 192.6836,671.3906 188.9463,665.3479 C185.275,671.5711 178.8212,671.8751 175.8444,664.6702 C172.5416,670.2859 166.8237,669.8233 163.8937,664.2713 C158.6802,669.6543 154.4058,669.9304 150.3467,663.0011 C145.7644,668.1778 140.8623,668.5592 137.4218,661.768 C132.6592,667.8712 126.5277,667.2431 123.0988,660.3035 C118.9548,666.9021 112.9268,665.6224 110.1155,658.9952 C103.7368,654.6693 103.3644,649.0263 110.2671,644.8427 C104.5549,642.2584 103.4752,636.9602 108.4443,632.7641 C104.0642,628.7496 103.9285,622.9389 110.4743,620.7742 C102.2313,617.2579 101.8888,610.0484 109.6373,605.6472 " fill="none" style="stroke:#181818;stroke-width:1.0;"/></g><!--MD5=[c84cc82a4897bddcf66a62f2bb85723e]
cluster App Database--><g id="cluster_App Database"><path d="M533.46,247 C533.46,237 593.46,237 593.46,237 C593.46,237 653.46,237 653.46,247 L653.46,329 C653.46,339 593.46,339 593.46,339 C593.46,339 533.46,339 533.46,329 L533.46,247 " fill="none" style="stroke:#181818;stroke-width:1.0;"/><path d="M533.46,247 C533.46,257 593.46,257 593.46,257 C593.46,257 653.46,257 653.46,247 " fill="none" style="stroke:#181818;stroke-width:1.0;"/><text fill="#000000" font-family="sans-serif" font-size="14" font-weight="bold" lengthAdjust="spacing" textLength="99" x="543.96" y="272.5352">App Database</text></g><!--MD5=[f92115063e8dc9f632cc320845e472c3]
entity bs--><g id="elem_bs"><path d="M166.96,451 C166.96,441 204.46,441 204.46,441 C204.46,441 241.96,441 241.96,451 L241.96,492.9766 C241.96,502.9766 204.46,502.9766 204.46,502.9766 C204.46,502.9766 166.96,502.9766 166.96,492.9766 L166.96,451 " fill="#F1F1F1" style="stroke:#181818;stroke-width:0.5;"/><path d="M166.96,451 C166.96,461 204.46,461 204.46,461 C204.46,461 241.96,461 241.96,451 " fill="none" style="stroke:#181818;stroke-width:0.5;"/><text fill="#000000" font-family="sans-serif" font-size="14" lengthAdjust="spacing" textLength="55" x="176.96" y="478.5352">Browser</text><text fill="#000000" font-family="sans-serif" font-size="14" lengthAdjust="spacing" textLength="53" x="176.96" y="495.0234">Storage</text></g><!--MD5=[02023e17f29579c18aaa8160cc64e4ce]
entity jsClone--><g id="elem_jsClone"><rect fill="#FFFFE0" height="36.4883" rx="2.5" ry="2.5" style="stroke:#181818;stroke-width:0.5;" width="95" x="105.96" y="287"/><text fill="#000000" font-family="sans-serif" font-size="14" lengthAdjust="spacing" textLength="75" x="115.96" y="310.5352">m-ld clone</text></g><!--MD5=[cede88ca6f48dd4a3458b51c098d950a]
entity form--><g id="elem_form"><rect fill="#F1F1F1" height="36.4883" rx="2.5" ry="2.5" style="stroke:#181818;stroke-width:0.5;" width="130" x="88.46" y="89"/><text fill="#000000" font-family="sans-serif" font-size="14" lengthAdjust="spacing" textLength="110" x="98.46" y="112.5352">Form Controller</text></g><!--MD5=[4541fb81c80c07473fe4b07432ef0971]
entity app--><g id="elem_app"><rect fill="#F1F1F1" height="36.4883" rx="2.5" ry="2.5" style="stroke:#181818;stroke-width:0.5;" width="100" x="322.46" y="287"/><text fill="#000000" font-family="sans-serif" font-size="14" lengthAdjust="spacing" textLength="80" x="332.46" y="310.5352">App Service</text></g><!--MD5=[f56f3099e9d7088e3ffbd2ca16089572]
entity gwClone--><g id="elem_gwClone"><rect fill="#FFFFE0" height="36.4883" rx="2.5" ry="2.5" style="stroke:#181818;stroke-width:0.5;" width="95" x="357.96" y="454"/><text fill="#000000" font-family="sans-serif" font-size="14" lengthAdjust="spacing" textLength="75" x="367.96" y="477.5352">m-ld clone</text></g><!--MD5=[de8dbb75c7c3abab9b49df715acaee46]
entity remotes--><g id="elem_remotes"><rect fill="#FFFFE0" height="36.4883" rx="2.5" ry="2.5" style="stroke:#181818;stroke-width:0.5;" width="165" x="117.96" y="613.5"/><text fill="#000000" font-family="sans-serif" font-size="14" lengthAdjust="spacing" textLength="145" x="127.96" y="637.0352">m-ld remotes service</text></g><!--MD5=[895070eb9ce9c06a0014a08eba460787]
entity DB_TABLE--><g id="elem_DB_TABLE"><rect fill="#F1F1F1" height="36.4883" rx="2.5" ry="2.5" style="stroke:#181818;stroke-width:0.5;" width="87" x="549.96" y="287"/><text fill="#000000" font-family="sans-serif" font-size="14" lengthAdjust="spacing" textLength="67" x="559.96" y="310.5352">DB_TABLE</text></g><!--MD5=[107003500c5c42cbbef62457b4e1bbc7]
entity volume--><g id="elem_volume"><path d="M370.46,619 C370.46,609 405.46,609 405.46,609 C405.46,609 440.46,609 440.46,619 L440.46,644.4883 C440.46,654.4883 405.46,654.4883 405.46,654.4883 C405.46,654.4883 370.46,654.4883 370.46,644.4883 L370.46,619 " fill="#FFFFE0" style="stroke:#181818;stroke-width:0.5;"/><path d="M370.46,619 C370.46,629 405.46,629 405.46,629 C405.46,629 440.46,629 440.46,619 " fill="none" style="stroke:#181818;stroke-width:0.5;"/><text fill="#000000" font-family="sans-serif" font-size="14" lengthAdjust="spacing" textLength="50" x="380.46" y="646.5352">volume</text></g><!--MD5=[fecc07e9fb0c8c40468adba4c1167d2f]
link jsClone to bs--><g id="link_jsClone_bs"><path d="M160.21,327.84 C168.73,355.41 183.49,403.16 193.6,435.87 " fill="none" id="jsClone-bs" style="stroke:#181818;stroke-width:1.0;stroke-dasharray:7.0,7.0;"/><polygon fill="#181818" points="195.18,440.99,196.3502,431.2109,193.7066,436.212,188.7054,433.5684,195.18,440.99" style="stroke:#181818;stroke-width:1.0;"/><polygon fill="#181818" points="158.73,323.04,157.5598,332.8191,160.2034,327.818,165.2046,330.4616,158.73,323.04" style="stroke:#181818;stroke-width:1.0;"/><text fill="#000000" font-family="sans-serif" font-size="13" lengthAdjust="spacing" textLength="66" x="177.46" y="368.5684">«optional»</text><text fill="#000000" font-family="sans-serif" font-size="13" lengthAdjust="spacing" textLength="43" x="188.96" y="383.8789">persist</text></g><!--MD5=[29d8691a05717b6aabe91f7843b0d265]
link form to jsClone--><g id="link_form_jsClone"><path d="M153.46,130.1 C153.46,167.7 153.46,243.72 153.46,281.55 " fill="none" id="form-jsClone" style="stroke:#181818;stroke-width:1.0;"/><polygon fill="#181818" points="153.46,286.85,157.46,277.85,153.46,281.85,149.46,277.85,153.46,286.85" style="stroke:#181818;stroke-width:1.0;"/><polygon fill="#181818" points="153.46,125.05,149.46,134.05,153.46,130.05,157.46,134.05,153.46,125.05" style="stroke:#181818;stroke-width:1.0;"/><text fill="#000000" font-family="sans-serif" font-size="13" lengthAdjust="spacing" textLength="11" x="154.46" y="168.5684">JS</text></g><!--MD5=[b5d73c6b4d1a65fad6a83a67faa4f254]
link form to app--><g id="link_form_app"><path d="M176.79,128.67 C192.99,143.05 215.06,162.66 234.46,180 C274.98,216.21 322.02,258.55 349.4,283.21 " fill="none" id="form-app" style="stroke:#181818;stroke-width:1.0;"/><polygon fill="#181818" points="353.29,286.72,349.2953,277.7176,349.5806,283.3673,343.931,283.6526,353.29,286.72" style="stroke:#181818;stroke-width:1.0;"/><polygon fill="#181818" points="172.8,125.14,176.8692,134.1089,176.537,128.4618,182.1841,128.1296,172.8,125.14" style="stroke:#181818;stroke-width:1.0;"/></g><!--MD5=[bc459eb6e89c92b9f8407d6506ef7530]
link app to gw--><g id="link_app_gw"><path d="M364.15,328.07 C357.56,345.97 348.35,371.93 341.46,395 C340.2537,399.04 339.0611,403.2159 337.8964,407.4357 C337.6053,408.4906 337.3158,409.5483 337.0284,410.6072 " fill="none" id="app-gw" style="stroke:#181818;stroke-width:1.0;"/><polygon fill="#181818" points="337.0284,410.6072,343.2463,402.9694,338.3382,405.7818,335.5257,400.8737,337.0284,410.6072" style="stroke:#181818;stroke-width:1.0;"/><polygon fill="#181818" points="365.93,323.24,359.0623,330.2994,364.1995,327.931,366.5679,333.0682,365.93,323.24" style="stroke:#181818;stroke-width:1.0;"/><text fill="#000000" font-family="sans-serif" font-size="13" lengthAdjust="spacing" textLength="95" x="354.46" y="376.0684">JSON/HTTP/ws</text></g><!--MD5=[20be0b36ad2a09869ee41a81117c6df7]
link app to DB_TABLE--><g id="link_app_DB_TABLE"><path d="M428,305 C466.83,305 505.66,305 544.5,305 " fill="none" id="app-DB_TABLE" style="stroke:#181818;stroke-width:1.0;"/><polygon fill="#181818" points="549.73,305,540.73,301,544.73,305,540.73,309,549.73,305" style="stroke:#181818;stroke-width:1.0;"/><polygon fill="#181818" points="422.53,305,431.53,309,427.53,305,431.53,301,422.53,305" style="stroke:#181818;stroke-width:1.0;"/></g><!--MD5=[b7b3ace60266d94eedb740e624029364]
link jsClone to remotes--><g id="link_jsClone_remotes"><path d="M114.47,325.63 C89.1,340.77 58.11,364.3 43.46,395 C13.02,458.78 6,494.08 43.46,554 C61.08,582.19 92.4,600.26 122.46,611.72 " fill="none" id="jsClone-remotes" style="stroke:#181818;stroke-width:1.0;"/><polygon fill="#181818" points="127.27,613.5,120.2106,606.6323,122.579,611.7695,117.4418,614.1379,127.27,613.5" style="stroke:#181818;stroke-width:1.0;"/><polygon fill="#181818" points="118.81,323.09,109.0227,324.1899,114.4963,325.6182,113.0679,331.0918,118.81,323.09" style="stroke:#181818;stroke-width:1.0;"/><text fill="#000000" font-family="sans-serif" font-size="13" lengthAdjust="spacing" textLength="47" x="44.46" y="477.0684">pubsub</text></g><!--MD5=[53b28f2b01454b1ad64b56d8d602b331]
link gwClone to volume--><g id="link_gwClone_volume"><path d="M405.46,495.52 C405.46,524.09 405.46,573.31 405.46,603.76 " fill="none" id="gwClone-volume" style="stroke:#181818;stroke-width:1.0;"/><polygon fill="#181818" points="405.46,608.85,409.46,599.85,405.46,603.85,401.46,599.85,405.46,608.85" style="stroke:#181818;stroke-width:1.0;"/><polygon fill="#181818" points="405.46,490.16,401.46,499.16,405.46,495.16,409.46,499.16,405.46,490.16" style="stroke:#181818;stroke-width:1.0;"/><text fill="#000000" font-family="sans-serif" font-size="13" lengthAdjust="spacing" textLength="43" x="406.46" y="575.5684">persist</text></g><!--MD5=[02f84000029a53bf67aa889dafcdbf73]
link gwClone to remotes--><g id="link_gwClone_remotes"><path d="M395.8,494.92 C387.09,512.68 372.83,537.4 354.46,554 C326.08,579.65 287.53,598.79 256.09,611.51 " fill="none" id="gwClone-remotes" style="stroke:#181818;stroke-width:1.0;"/><polygon fill="#181818" points="251.11,613.5,260.9508,613.8975,255.7573,611.6554,257.9994,606.4618,251.11,613.5" style="stroke:#181818;stroke-width:1.0;"/><polygon fill="#181818" points="398.11,490.11,390.6041,496.4866,395.9426,494.6158,397.8134,499.9544,398.11,490.11" style="stroke:#181818;stroke-width:1.0;"/><text fill="#000000" font-family="sans-serif" font-size="13" lengthAdjust="spacing" textLength="47" x="344.46" y="575.5684">pubsub</text></g><!--MD5=[a662da147aacc63a8e2f126ad26c9119]
@startuml
'https://plantuml.com/component-diagram
skinparam componentStyle rectangle

node Browser {
  database "Browser\nStorage" as bs
  component page {
    component "m-ld clone" as jsClone #lightyellow
    jsClone <..> bs : <<optional>>\npersist
    component "Form Controller" as form
    form <- -> jsClone : JS
  }
}

node "App Service Tier" {
  component "App Service\nContainer" {
    component [App Service] as app
  }
  component "m-ld Gateway" as gw #lightgreen {
    component "m-ld clone" as gwClone #lightyellow
  }
}

database volume #lightyellow

cloud {
  component "m-ld remotes service" as remotes #lightyellow
}

database "App Database" {
  [DB_TABLE]
}

form <- -> app
app <- -> gw : JSON/HTTP/ws
app <-> DB_TABLE
jsClone <- -> remotes : pubsub
gwClone <- -> volume : persist
gwClone <- -> remotes : pubsub

@enduml

@startuml
skinparam componentStyle rectangle

node Browser {
  database "Browser\nStorage" as bs
  component page {
    component "m-ld clone" as jsClone #lightyellow
    jsClone <..> bs : <<optional>>\npersist
    component "Form Controller" as form
    form <- -> jsClone : JS
  }
}

node "App Service Tier" {
  component "App Service\nContainer" {
    component [App Service] as app
  }
  component "m-ld Gateway" as gw #lightgreen {
    component "m-ld clone" as gwClone #lightyellow
  }
}

database volume #lightyellow

cloud {
  component "m-ld remotes service" as remotes #lightyellow
}

database "App Database" {
  [DB_TABLE]
}

form <- -> app
app <- -> gw : JSON/HTTP/ws
app <-> DB_TABLE
jsClone <- -> remotes : pubsub
gwClone <- -> volume : persist
gwClone <- -> remotes : pubsub

@enduml

PlantUML version 1.2022.8(Sun Sep 25 10:00:33 BST 2022)
(GPL source distribution)
Java Runtime: OpenJDK Runtime Environment
JVM: OpenJDK 64-Bit Server VM
Default Encoding: UTF-8
Language: en
Country: GB
--></g></svg>