<?xml version="1.0" encoding="UTF-8" standalone="no"?>
<svg xmlns="http://www.w3.org/2000/svg"
     contentStyleType="text/css" height="663px" preserveAspectRatio="none"
     style="width:666px;height:663px;background:#FFFFFF;" version="1.1" viewBox="0 0 666 663"
     width="666px" zoomAndPan="magnify"><defs/><g><!--MD5=[8699c0c8e953ee53654a072cc875bfb4]
cluster Browser--><g id="cluster_Browser"><polygon fill="none" points="23.55,16,33.55,6,252.55,6,252.55,509,242.55,519,23.55,519,23.55,16" style="stroke:#181818;stroke-width:1.0;"/><line style="stroke:#181818;stroke-width:1.0;" x1="242.55" x2="252.55" y1="16" y2="6"/><line style="stroke:#181818;stroke-width:1.0;" x1="23.55" x2="242.55" y1="16" y2="16"/><line style="stroke:#181818;stroke-width:1.0;" x1="242.55" x2="242.55" y1="16" y2="519"/><text fill="#000000" font-family="sans-serif" font-size="14" font-weight="bold" lengthAdjust="spacing" textLength="58" x="105.05" y="32.5352">Browser</text></g><!--MD5=[d3c595dc7835f149e458c44ed889a37a]
cluster page--><g id="cluster_page"><rect fill="none" height="285" rx="2.5" ry="2.5" style="stroke:#181818;stroke-width:1.0;" width="181" x="47.55" y="54"/><text fill="#000000" font-family="sans-serif" font-size="14" font-weight="bold" lengthAdjust="spacing" textLength="34" x="121.05" y="69.5352">page</text></g><!--MD5=[84d204d48e0bf0e71c948c7acde494e4]
cluster App Service Tier--><g id="cluster_App Service Tier"><polygon fill="none" points="276.55,198,286.55,188,505.55,188,505.55,520,495.55,530,276.55,530,276.55,198" style="stroke:#181818;stroke-width:1.0;"/><line style="stroke:#181818;stroke-width:1.0;" x1="495.55" x2="505.55" y1="198" y2="188"/><line style="stroke:#181818;stroke-width:1.0;" x1="276.55" x2="495.55" y1="198" y2="198"/><line style="stroke:#181818;stroke-width:1.0;" x1="495.55" x2="495.55" y1="198" y2="530"/><text fill="#000000" font-family="sans-serif" font-size="14" font-weight="bold" lengthAdjust="spacing" textLength="117" x="328.55" y="214.5352">App Service Tier</text></g><!--MD5=[000a823102ee8a4c19dd1dfc24a70275]
cluster App Service\nContainer--><g id="cluster_App Service\nContainer"><rect fill="none" height="103" rx="2.5" ry="2.5" style="stroke:#181818;stroke-width:1.0;" width="132" x="326.55" y="236"/><text fill="#000000" font-family="sans-serif" font-size="14" font-weight="bold" lengthAdjust="spacing" textLength="83" x="351.05" y="251.5352">App Service</text><text fill="#000000" font-family="sans-serif" font-size="14" font-weight="bold" lengthAdjust="spacing" textLength="70" x="357.55" y="268.0234">Container</text></g><!--MD5=[a96875dd8cb2e433dc952b8d34d153d3]
cluster gw--><g id="cluster_gw"><rect fill="none" height="103" rx="2.5" ry="2.5" style="stroke:#181818;stroke-width:1.0;" width="181" x="300.55" y="403"/><text fill="#000000" font-family="sans-serif" font-size="14" font-weight="bold" lengthAdjust="spacing" textLength="102" x="340.05" y="418.5352">m-ld Gateway</text><text fill="#000000" font-family="sans-serif" font-size="14" font-weight="bold" lengthAdjust="spacing" textLength="61" x="360.55" y="435.0234">(NodeJS)</text></g><g id="cluster_##19"><path d="M76.7273,589.6472 C81.6013,583.955 85.7914,584.1673 90.0404,590.348 C94.322,583.0869 99.8688,582.267 104.7982,589.6972 C106.8762,582.463 113.0785,582.376 117.1159,587.7889 C121.2606,581.5998 125.3915,582.5982 129.5922,587.7271 C132.5241,579.5686 138.157,579.0051 143.3522,585.6188 C147.2991,578.7938 151.6125,579.4615 155.7487,585.4354 C159.0177,578.5926 164.5207,577.4312 168.9378,584.3337 C173.1085,579.116 178.1961,579.6711 180.7287,586.0055 C185.0082,579.3644 190.5884,580.3604 194.3881,586.5175 C197.5284,579.4781 203.5854,580.368 207.5024,585.6937 C212.5867,579.3112 216.5202,581.2111 220.1889,587.1511 C225.3885,581.9945 229.814,583.4935 232.811,589.6159 C237.7247,584.3401 242.4827,583.256 246.326,590.7489 C250.9365,583.5132 256.9335,583.7433 260.704,591.5517 C266.5131,594.9456 266.4419,599.4092 260.6488,602.7459 C269.2336,606.4313 269.9232,611.4485 262.6464,617.3096 C268.1413,621.6475 269.3186,626.1121 262.3974,630.2103 C268.0565,635.0803 265.6138,639.2041 260.0688,641.8287 C256.5499,648.6001 252.4097,649.3652 247.3004,643.4264 C244.0455,649.7568 238.9309,650.8817 233.6833,645.8052 C230.5494,651.4806 225.3604,652.8484 221.0262,647.1398 C216.9825,653.0055 212.2495,652.9346 207.7111,647.7351 C203.9965,653.2011 198.5117,653.2506 195.2559,647.2373 C192.3442,654.2558 186.9608,654.1818 182.6883,648.594 C179.4838,655.3092 172.6757,656.7053 167.9945,650.2403 C163.3457,656.4104 159.7736,655.3906 156.0363,649.3479 C152.365,655.5711 145.9112,655.8751 142.9344,648.6702 C139.6316,654.2859 133.9137,653.8233 130.9837,648.2713 C125.7702,653.6543 121.4958,653.9304 117.4367,647.0011 C112.8544,652.1778 107.9523,652.5592 104.5118,645.768 C99.7492,651.8712 93.6177,651.2431 90.1888,644.3035 C86.0448,650.9021 80.0168,649.6224 77.2055,642.9952 C70.8268,638.6693 70.4544,633.0263 77.3571,628.8427 C71.6449,626.2584 70.5652,620.9602 75.5343,616.7641 C71.1542,612.7496 71.0185,606.9389 77.5643,604.7742 C69.3213,601.2579 68.9788,594.0484 76.7273,589.6472 " fill="none" style="stroke:#181818;stroke-width:1.0;"/></g><!--MD5=[c84cc82a4897bddcf66a62f2bb85723e]
cluster App Database--><g id="cluster_App Database"><path d="M529.55,247 C529.55,237 589.55,237 589.55,237 C589.55,237 649.55,237 649.55,247 L649.55,329 C649.55,339 589.55,339 589.55,339 C589.55,339 529.55,339 529.55,329 L529.55,247 " fill="none" style="stroke:#181818;stroke-width:1.0;"/><path d="M529.55,247 C529.55,257 589.55,257 589.55,257 C589.55,257 649.55,257 649.55,247 " fill="none" style="stroke:#181818;stroke-width:1.0;"/><text fill="#000000" font-family="sans-serif" font-size="14" font-weight="bold" lengthAdjust="spacing" textLength="99" x="540.05" y="272.5352">App Database</text></g><!--MD5=[f92115063e8dc9f632cc320845e472c3]
entity bs--><g id="elem_bs"><path d="M161.05,451 C161.05,441 198.55,441 198.55,441 C198.55,441 236.05,441 236.05,451 L236.05,492.9766 C236.05,502.9766 198.55,502.9766 198.55,502.9766 C198.55,502.9766 161.05,502.9766 161.05,492.9766 L161.05,451 " fill="#F1F1F1" style="stroke:#181818;stroke-width:0.5;"/><path d="M161.05,451 C161.05,461 198.55,461 198.55,461 C198.55,461 236.05,461 236.05,451 " fill="none" style="stroke:#181818;stroke-width:0.5;"/><text fill="#000000" font-family="sans-serif" font-size="14" lengthAdjust="spacing" textLength="55" x="171.05" y="478.5352">Browser</text><text fill="#000000" font-family="sans-serif" font-size="14" lengthAdjust="spacing" textLength="53" x="171.05" y="495.0234">Storage</text></g><!--MD5=[02023e17f29579c18aaa8160cc64e4ce]
entity jsClone--><g id="elem_jsClone"><rect fill="#FFFFE0" height="36.4883" rx="2.5" ry="2.5" style="stroke:#181818;stroke-width:0.5;" width="95" x="64.05" y="287"/><text fill="#000000" font-family="sans-serif" font-size="14" lengthAdjust="spacing" textLength="75" x="74.05" y="310.5352">m-ld clone</text></g><!--MD5=[29dcb281fe740d052c1d1e24ab090912]
entity mldAPI--><g id="elem_mldAPI"><ellipse cx="203.55" cy="305" fill="#FFFFE0" rx="8" ry="8" style="stroke:#181818;stroke-width:0.5;"/><text fill="#000000" font-family="sans-serif" font-size="14" lengthAdjust="spacing" textLength="60" x="173.55" y="335.5352">m-ld API</text></g><!--MD5=[cede88ca6f48dd4a3458b51c098d950a]
entity form--><g id="elem_form"><rect fill="#F1F1F1" height="36.4883" rx="2.5" ry="2.5" style="stroke:#181818;stroke-width:0.5;" width="130" x="82.55" y="89"/><text fill="#000000" font-family="sans-serif" font-size="14" lengthAdjust="spacing" textLength="110" x="92.55" y="112.5352">Form Controller</text></g><!--MD5=[4541fb81c80c07473fe4b07432ef0971]
entity app--><g id="elem_app"><rect fill="#F1F1F1" height="36.4883" rx="2.5" ry="2.5" style="stroke:#181818;stroke-width:0.5;" width="100" x="342.55" y="287"/><text fill="#000000" font-family="sans-serif" font-size="14" lengthAdjust="spacing" textLength="80" x="352.55" y="310.5352">App Service</text></g><!--MD5=[f56f3099e9d7088e3ffbd2ca16089572]
entity gwClone--><g id="elem_gwClone"><rect fill="#FFFFE0" height="36.4883" rx="2.5" ry="2.5" style="stroke:#181818;stroke-width:0.5;" width="95" x="317.05" y="454"/><text fill="#000000" font-family="sans-serif" font-size="14" lengthAdjust="spacing" textLength="75" x="327.05" y="477.5352">m-ld clone</text></g><!--MD5=[0991c7e4a87a4cd8d07bba30f1cdcf5a]
entity gwCloneAPI--><g id="elem_gwCloneAPI"><ellipse cx="456.55" cy="472" fill="#FFFFE0" rx="8" ry="8" style="stroke:#181818;stroke-width:0.5;"/><text fill="#000000" font-family="sans-serif" font-size="14" lengthAdjust="spacing" textLength="60" x="426.55" y="502.5352">m-ld API</text></g><!--MD5=[de8dbb75c7c3abab9b49df715acaee46]
entity remotes--><g id="elem_remotes"><rect fill="#FFFFE0" height="36.4883" rx="2.5" ry="2.5" style="stroke:#181818;stroke-width:0.5;" width="165" x="85.05" y="597.5"/><text fill="#000000" font-family="sans-serif" font-size="14" lengthAdjust="spacing" textLength="145" x="95.05" y="621.0352">m-ld remotes service</text></g><!--MD5=[895070eb9ce9c06a0014a08eba460787]
entity DB_TABLE--><g id="elem_DB_TABLE"><rect fill="#F1F1F1" height="36.4883" rx="2.5" ry="2.5" style="stroke:#181818;stroke-width:0.5;" width="87" x="546.05" y="287"/><text fill="#000000" font-family="sans-serif" font-size="14" lengthAdjust="spacing" textLength="67" x="556.05" y="310.5352">DB_TABLE</text></g><!--MD5=[107003500c5c42cbbef62457b4e1bbc7]
entity volume--><g id="elem_volume"><path d="M329.55,603 C329.55,593 364.55,593 364.55,593 C364.55,593 399.55,593 399.55,603 L399.55,628.4883 C399.55,638.4883 364.55,638.4883 364.55,638.4883 C364.55,638.4883 329.55,638.4883 329.55,628.4883 L329.55,603 " fill="#FFFFE0" style="stroke:#181818;stroke-width:0.5;"/><path d="M329.55,603 C329.55,613 364.55,613 364.55,613 C364.55,613 399.55,613 399.55,603 " fill="none" style="stroke:#181818;stroke-width:0.5;"/><text fill="#000000" font-family="sans-serif" font-size="14" lengthAdjust="spacing" textLength="50" x="339.55" y="630.5352">volume</text></g><!--MD5=[fecc07e9fb0c8c40468adba4c1167d2f]
link jsClone to bs--><g id="link_jsClone_bs"><path d="M122.88,327.48 C137.44,355.1 162.9,403.39 180.23,436.26 " fill="none" id="jsClone-bs" style="stroke:#181818;stroke-width:1.0;stroke-dasharray:7.0,7.0;"/><polygon fill="#181818" points="182.73,440.99,182.0688,431.1634,180.3971,436.5676,174.9929,434.8959,182.73,440.99" style="stroke:#181818;stroke-width:1.0;"/><polygon fill="#181818" points="120.53,323.04,121.2161,332.8649,122.874,327.4565,128.2825,329.1145,120.53,323.04" style="stroke:#181818;stroke-width:1.0;"/><text fill="#000000" font-family="sans-serif" font-size="13" lengthAdjust="spacing" textLength="66" x="152.55" y="368.5684">«optional»</text><text fill="#000000" font-family="sans-serif" font-size="13" lengthAdjust="spacing" textLength="43" x="164.05" y="383.8789">persist</text></g><!--MD5=[fdf7063d74731a93b59a17402a310076]
link jsClone to mldAPI--><g id="link_jsClone_mldAPI"><path d="M159.35,305 C170.97,305 182.6,305 194.23,305 " fill="none" id="jsClone-mldAPI" style="stroke:#181818;stroke-width:1.0;"/></g><!--MD5=[b881f71f9683dd41b95a79b5322c671b]
link form to mldAPI--><g id="link_form_mldAPI"><path d="M157.43,129.75 C163.56,143.86 171.24,162.76 176.55,180 C188.73,219.57 197.58,267.87 201.42,290.76 " fill="none" id="form-mldAPI" style="stroke:#181818;stroke-width:1.0;"/><polygon fill="#181818" points="202.25,295.75,204.7025,286.2114,201.4211,290.8192,196.8133,287.5377,202.25,295.75" style="stroke:#181818;stroke-width:1.0;"/><polygon fill="#181818" points="155.42,125.16,155.3515,135.0086,157.4188,129.7431,162.6844,131.8105,155.42,125.16" style="stroke:#181818;stroke-width:1.0;"/><text fill="#000000" font-family="sans-serif" font-size="13" lengthAdjust="spacing" textLength="11" x="174.55" y="168.5684">JS</text></g><!--MD5=[151e4e1deecfa6806569056cd1c58026]
link gwClone to gwCloneAPI--><g id="link_gwClone_gwCloneAPI"><path d="M412.35,472 C423.97,472 435.6,472 447.23,472 " fill="none" id="gwClone-gwCloneAPI" style="stroke:#181818;stroke-width:1.0;"/></g><!--MD5=[b5d73c6b4d1a65fad6a83a67faa4f254]
link form to app--><g id="link_form_app"><path d="M172.8,128.2 C219.72,165.74 319.84,245.83 366.99,283.55 " fill="none" id="form-app" style="stroke:#181818;stroke-width:1.0;"/><polygon fill="#181818" points="371.11,286.85,366.5927,278.0982,367.2098,283.7213,361.5868,284.3385,371.11,286.85" style="stroke:#181818;stroke-width:1.0;"/><polygon fill="#181818" points="168.86,125.05,173.3773,133.8018,172.7602,128.1787,178.3832,127.5615,168.86,125.05" style="stroke:#181818;stroke-width:1.0;"/></g><!--MD5=[c508283d4d0e2484edf52e31fe410562]
link app to gwCloneAPI--><g id="link_app_gwCloneAPI"><path d="M402.13,328.12 C409.8,346.05 420.7,372.02 429.55,395 C437.98,416.88 446.93,442.65 452.12,457.86 " fill="none" id="app-gwCloneAPI" style="stroke:#181818;stroke-width:1.0;"/><polygon fill="#181818" points="453.85,462.96,454.7368,453.1511,452.239,458.2267,447.1634,455.7288,453.85,462.96" style="stroke:#181818;stroke-width:1.0;"/><polygon fill="#181818" points="400.05,323.29,399.9298,333.1381,402.0248,327.8835,407.2794,329.9785,400.05,323.29" style="stroke:#181818;stroke-width:1.0;"/><text fill="#000000" font-family="sans-serif" font-size="13" lengthAdjust="spacing" textLength="95" x="426.55" y="376.0684">JSON/HTTP/ws</text></g><!--MD5=[20be0b36ad2a09869ee41a81117c6df7]
link app to DB_TABLE--><g id="link_app_DB_TABLE"><path d="M447.82,305 C478.73,305 509.64,305 540.55,305 " fill="none" id="app-DB_TABLE" style="stroke:#181818;stroke-width:1.0;"/><polygon fill="#181818" points="545.92,305,536.92,301,540.92,305,536.92,309,545.92,305" style="stroke:#181818;stroke-width:1.0;"/><polygon fill="#181818" points="442.57,305,451.57,309,447.57,305,451.57,301,442.57,305" style="stroke:#181818;stroke-width:1.0;"/></g><!--MD5=[b7b3ace60266d94eedb740e624029364]
link jsClone to remotes--><g id="link_jsClone_remotes"><path d="M86.8,326.86 C69.32,343.31 47.33,367.94 37.55,395 C15.95,454.77 6,482.83 37.55,538 C52.97,564.97 82.02,583.37 108.75,595.36 " fill="none" id="jsClone-remotes" style="stroke:#181818;stroke-width:1.0;"/><polygon fill="#181818" points="113.36,597.37,106.7179,590.098,108.7792,595.3659,103.5113,597.4273,113.36,597.37" style="stroke:#181818;stroke-width:1.0;"/><polygon fill="#181818" points="90.68,323.27,81.3588,326.4504,87.0115,326.6673,86.7945,332.32,90.68,323.27" style="stroke:#181818;stroke-width:1.0;"/><text fill="#000000" font-family="sans-serif" font-size="13" lengthAdjust="spacing" textLength="47" x="38.55" y="477.0684">pubsub</text></g><!--MD5=[53b28f2b01454b1ad64b56d8d602b331]
link gwClone to volume--><g id="link_gwClone_volume"><path d="M364.55,495.15 C364.55,520.14 364.55,560.77 364.55,587.57 " fill="none" id="gwClone-volume" style="stroke:#181818;stroke-width:1.0;"/><polygon fill="#181818" points="364.55,592.74,368.55,583.74,364.55,587.74,360.55,583.74,364.55,592.74" style="stroke:#181818;stroke-width:1.0;"/><polygon fill="#181818" points="364.55,490.07,360.55,499.07,364.55,495.07,368.55,499.07,364.55,490.07" style="stroke:#181818;stroke-width:1.0;"/><text fill="#000000" font-family="sans-serif" font-size="13" lengthAdjust="spacing" textLength="43" x="365.55" y="559.5684">persist</text></g><!--MD5=[02f84000029a53bf67aa889dafcdbf73]
link gwClone to remotes--><g id="link_gwClone_remotes"><path d="M336.66,493.03 C299.31,519.86 233.39,567.21 195.83,594.19 " fill="none" id="gwClone-remotes" style="stroke:#181818;stroke-width:1.0;"/><polygon fill="#181818" points="191.4,597.37,201.0466,595.3842,195.4658,594.4598,196.3902,588.879,191.4,597.37" style="stroke:#181818;stroke-width:1.0;"/><polygon fill="#181818" points="340.79,490.07,331.1434,492.0558,336.7242,492.9802,335.7998,498.561,340.79,490.07" style="stroke:#181818;stroke-width:1.0;"/><text fill="#000000" font-family="sans-serif" font-size="13" lengthAdjust="spacing" textLength="47" x="260.55" y="559.5684">pubsub</text></g><!--MD5=[71f5403a50d03c4684e7bc6e610abf3d]
@startuml
'https://plantuml.com/component-diagram
skinparam componentStyle rectangle

node Browser {
  database "Browser\nStorage" as bs
  component page {
    component "m-ld clone" as jsClone #lightyellow
    interface "m-ld API" as mldAPI #lightyellow
    jsClone <..> bs : <<optional>>\npersist
    jsClone - mldAPI
    component "Form Controller" as form
    form <- -> mldAPI : JS
  }
}

node "App Service Tier" {
  component "App Service\nContainer" {
    component [App Service] as app
  }
  component "m-ld Gateway\n(NodeJS)" as gw {
    component "m-ld clone" as gwClone #lightyellow
    interface "m-ld API" as gwCloneAPI #lightyellow
    gwClone - gwCloneAPI
  }
}

database volume #lightyellow

cloud {
  component "m-ld remotes service" as remotes #lightyellow
}

database "App Database" {
  [DB_TABLE]
}

form <- -> app
app <- -> gwCloneAPI : JSON/HTTP/ws
app <-> DB_TABLE
jsClone <- -> remotes : pubsub
gwClone <- -> volume : persist
gwClone <- -> remotes : pubsub

@enduml

@startuml
skinparam componentStyle rectangle

node Browser {
  database "Browser\nStorage" as bs
  component page {
    component "m-ld clone" as jsClone #lightyellow
    interface "m-ld API" as mldAPI #lightyellow
    jsClone <..> bs : <<optional>>\npersist
    jsClone - mldAPI
    component "Form Controller" as form
    form <- -> mldAPI : JS
  }
}

node "App Service Tier" {
  component "App Service\nContainer" {
    component [App Service] as app
  }
  component "m-ld Gateway\n(NodeJS)" as gw {
    component "m-ld clone" as gwClone #lightyellow
    interface "m-ld API" as gwCloneAPI #lightyellow
    gwClone - gwCloneAPI
  }
}

database volume #lightyellow

cloud {
  component "m-ld remotes service" as remotes #lightyellow
}

database "App Database" {
  [DB_TABLE]
}

form <- -> app
app <- -> gwCloneAPI : JSON/HTTP/ws
app <-> DB_TABLE
jsClone <- -> remotes : pubsub
gwClone <- -> volume : persist
gwClone <- -> remotes : pubsub

@enduml

PlantUML version 1.2022.8(Sun Sep 25 10:00:33 BST 2022)
(GPL source distribution)
Java Runtime: OpenJDK Runtime Environment
JVM: OpenJDK 64-Bit Server VM
Default Encoding: UTF-8
Language: en
Country: GB
--></g></svg>