<?xml version="1.0" encoding="UTF-8" standalone="no"?><svg xmlns="http://www.w3.org/2000/svg" xmlns:xlink="http://www.w3.org/1999/xlink" contentStyleType="text/css" height="732px" preserveAspectRatio="none" style="width:734px;height:732px;background:#FFFFFF;" version="1.1" viewBox="0 0 734 732" width="734px" zoomAndPan="magnify"><defs/><g><rect fill="none" height="26.4883" id="_title" style="stroke:none;stroke-width:1.0;" width="333" x="193.865" y="5"/><text fill="#000000" font-family="sans-serif" font-size="14" font-weight="bold" lengthAdjust="spacing" textLength="323" x="198.865" y="23.5352">Web App with Database and Sidecar Gateway</text><!--MD5=[8699c0c8e953ee53654a072cc875bfb4]
cluster Browser--><g id="cluster_Browser"><polygon fill="none" points="48.23,53.4883,58.23,43.4883,258.23,43.4883,258.23,546.4883,248.23,556.4883,48.23,556.4883,48.23,53.4883" style="stroke:#181818;stroke-width:1.0;"/><line style="stroke:#181818;stroke-width:1.0;" x1="248.23" x2="258.23" y1="53.4883" y2="43.4883"/><line style="stroke:#181818;stroke-width:1.0;" x1="48.23" x2="248.23" y1="53.4883" y2="53.4883"/><line style="stroke:#181818;stroke-width:1.0;" x1="248.23" x2="248.23" y1="53.4883" y2="556.4883"/><text fill="#000000" font-family="sans-serif" font-size="14" font-weight="bold" lengthAdjust="spacing" textLength="58" x="120.23" y="70.0234">Browser</text></g><!--MD5=[d3c595dc7835f149e458c44ed889a37a]
cluster page--><g id="cluster_page"><rect fill="none" height="285" rx="2.5" ry="2.5" style="stroke:#181818;stroke-width:1.0;" width="162" x="72.23" y="91.4883"/><text fill="#000000" font-family="sans-serif" font-size="14" font-weight="bold" lengthAdjust="spacing" textLength="34" x="136.23" y="107.0234">page</text></g><!--MD5=[84d204d48e0bf0e71c948c7acde494e4]
cluster App Service Tier--><g id="cluster_App Service Tier"><polygon fill="none" points="282.23,235.4883,292.23,225.4883,568.23,225.4883,568.23,705.9883,558.23,715.9883,282.23,715.9883,282.23,235.4883" style="stroke:#181818;stroke-width:1.0;"/><line style="stroke:#181818;stroke-width:1.0;" x1="558.23" x2="568.23" y1="235.4883" y2="225.4883"/><line style="stroke:#181818;stroke-width:1.0;" x1="282.23" x2="558.23" y1="235.4883" y2="235.4883"/><line style="stroke:#181818;stroke-width:1.0;" x1="558.23" x2="558.23" y1="235.4883" y2="715.9883"/><text fill="#000000" font-family="sans-serif" font-size="14" font-weight="bold" lengthAdjust="spacing" textLength="117" x="362.73" y="252.0234">App Service Tier</text></g><!--MD5=[000a823102ee8a4c19dd1dfc24a70275]
cluster App Service\nContainer--><g id="cluster_App Service\nContainer"><rect fill="none" height="103" rx="2.5" ry="2.5" style="stroke:#181818;stroke-width:1.0;" width="132" x="306.23" y="273.4883"/><text fill="#000000" font-family="sans-serif" font-size="14" font-weight="bold" lengthAdjust="spacing" textLength="83" x="330.73" y="289.0234">App Service</text><text fill="#000000" font-family="sans-serif" font-size="14" font-weight="bold" lengthAdjust="spacing" textLength="70" x="337.23" y="305.5117">Container</text></g><!--MD5=[a96875dd8cb2e433dc952b8d34d153d3]
cluster gw--><g id="cluster_gw"><rect fill="#90EE90" height="235.5" rx="2.5" ry="2.5" style="stroke:#181818;stroke-width:1.0;" width="222" x="314.23" y="448.4883"/><text fill="#000000" font-family="sans-serif" font-size="14" font-weight="bold" lengthAdjust="spacing" textLength="102" x="374.23" y="464.0234">m-ld Gateway</text></g><!--MD5=[c84cc82a4897bddcf66a62f2bb85723e]
cluster App Database--><g id="cluster_App Database"><path d="M594.23,284.4883 C594.23,274.4883 654.23,274.4883 654.23,274.4883 C654.23,274.4883 714.23,274.4883 714.23,284.4883 L714.23,366.4883 C714.23,376.4883 654.23,376.4883 654.23,376.4883 C654.23,376.4883 594.23,376.4883 594.23,366.4883 L594.23,284.4883 " fill="none" style="stroke:#181818;stroke-width:1.0;"/><path d="M594.23,284.4883 C594.23,294.4883 654.23,294.4883 654.23,294.4883 C654.23,294.4883 714.23,294.4883 714.23,284.4883 " fill="none" style="stroke:#181818;stroke-width:1.0;"/><text fill="#000000" font-family="sans-serif" font-size="14" font-weight="bold" lengthAdjust="spacing" textLength="99" x="604.73" y="310.0234">App Database</text></g><!--MD5=[f92115063e8dc9f632cc320845e472c3]
entity bs--><g id="elem_bs"><path d="M166.73,488.4883 C166.73,478.4883 204.23,478.4883 204.23,478.4883 C204.23,478.4883 241.73,478.4883 241.73,488.4883 L241.73,530.4648 C241.73,540.4648 204.23,540.4648 204.23,540.4648 C204.23,540.4648 166.73,540.4648 166.73,530.4648 L166.73,488.4883 " fill="#F1F1F1" style="stroke:#181818;stroke-width:0.5;"/><path d="M166.73,488.4883 C166.73,498.4883 204.23,498.4883 204.23,498.4883 C204.23,498.4883 241.73,498.4883 241.73,488.4883 " fill="none" style="stroke:#181818;stroke-width:0.5;"/><text fill="#000000" font-family="sans-serif" font-size="14" lengthAdjust="spacing" textLength="55" x="176.73" y="516.0234">Browser</text><text fill="#000000" font-family="sans-serif" font-size="14" lengthAdjust="spacing" textLength="53" x="176.73" y="532.5117">Storage</text></g><!--MD5=[02023e17f29579c18aaa8160cc64e4ce]
entity jsClone--><g id="elem_jsClone"><rect fill="#FFFFE0" height="36.4883" rx="2.5" ry="2.5" style="stroke:#181818;stroke-width:0.5;" width="95" x="105.73" y="324.4883"/><text fill="#000000" font-family="sans-serif" font-size="14" lengthAdjust="spacing" textLength="75" x="115.73" y="348.0234">m-ld clone</text></g><!--MD5=[cede88ca6f48dd4a3458b51c098d950a]
entity form--><g id="elem_form"><rect fill="#F1F1F1" height="36.4883" rx="2.5" ry="2.5" style="stroke:#181818;stroke-width:0.5;" width="130" x="88.23" y="126.4883"/><text fill="#000000" font-family="sans-serif" font-size="14" lengthAdjust="spacing" textLength="110" x="98.23" y="150.0234">Form Controller</text></g><!--MD5=[4541fb81c80c07473fe4b07432ef0971]
entity app--><g id="elem_app"><rect fill="#F1F1F1" height="36.4883" rx="2.5" ry="2.5" style="stroke:#181818;stroke-width:0.5;" width="100" x="322.23" y="324.4883"/><text fill="#000000" font-family="sans-serif" font-size="14" lengthAdjust="spacing" textLength="80" x="332.23" y="348.0234">App Service</text></g><!--MD5=[f56f3099e9d7088e3ffbd2ca16089572]
entity gwClone--><g id="elem_gwClone"><rect fill="#FFFFE0" height="36.4883" rx="2.5" ry="2.5" style="stroke:#181818;stroke-width:0.5;" width="95" x="407.73" y="491.4883"/><text fill="#000000" font-family="sans-serif" font-size="14" lengthAdjust="spacing" textLength="75" x="417.73" y="515.0234">m-ld clone</text></g><!--MD5=[de8dbb75c7c3abab9b49df715acaee46]
entity remotes--><g id="elem_remotes"><rect fill="#FFFFE0" height="36.4883" rx="2.5" ry="2.5" style="stroke:#181818;stroke-width:0.5;" width="165" x="346.73" y="623.9883"/><text fill="#000000" font-family="sans-serif" font-size="14" lengthAdjust="spacing" textLength="145" x="356.73" y="647.5234">m-ld remotes service</text></g><!--MD5=[895070eb9ce9c06a0014a08eba460787]
entity DB_TABLE--><g id="elem_DB_TABLE"><rect fill="#F1F1F1" height="36.4883" rx="2.5" ry="2.5" style="stroke:#181818;stroke-width:0.5;" width="87" x="610.73" y="324.4883"/><text fill="#000000" font-family="sans-serif" font-size="14" lengthAdjust="spacing" textLength="67" x="620.73" y="348.0234">DB_TABLE</text></g><!--MD5=[107003500c5c42cbbef62457b4e1bbc7]
entity volume--><g id="elem_volume"><path d="M584.23,629.4883 C584.23,619.4883 619.23,619.4883 619.23,619.4883 C619.23,619.4883 654.23,619.4883 654.23,629.4883 L654.23,654.9766 C654.23,664.9766 619.23,664.9766 619.23,664.9766 C619.23,664.9766 584.23,664.9766 584.23,654.9766 L584.23,629.4883 " fill="#FFFFE0" style="stroke:#181818;stroke-width:0.5;"/><path d="M584.23,629.4883 C584.23,639.4883 619.23,639.4883 619.23,639.4883 C619.23,639.4883 654.23,639.4883 654.23,629.4883 " fill="none" style="stroke:#181818;stroke-width:0.5;"/><text fill="#000000" font-family="sans-serif" font-size="14" lengthAdjust="spacing" textLength="50" x="594.23" y="657.0234">volume</text></g><g id="elem_GMN18"><path d="M584.73,481.4883 L584.73,537.4199 A0,0 0 0 0 584.73,537.4199 L727.73,537.4199 A0,0 0 0 0 727.73,537.4199 L727.73,491.4883 L717.73,481.4883 L659.9,481.4883 L654.44,360.5283 L651.9,481.4883 L584.73,481.4883 A0,0 0 0 0 584.73,481.4883 " fill="#FEFFDD" style="stroke:#181818;stroke-width:0.5;"/><path d="M717.73,481.4883 L717.73,491.4883 L727.73,491.4883 L717.73,481.4883 " fill="#FEFFDD" style="stroke:#181818;stroke-width:0.5;"/><text fill="#000000" font-family="sans-serif" font-size="13" lengthAdjust="spacing" textLength="122" x="590.73" y="499.0566">The database is the</text><text fill="#000000" font-family="sans-serif" font-size="13" lengthAdjust="spacing" textLength="116" x="590.73" y="514.3672">source of truth for</text><text fill="#000000" font-family="sans-serif" font-size="13" lengthAdjust="spacing" textLength="94" x="590.73" y="529.6777">the application</text></g><!--MD5=[fecc07e9fb0c8c40468adba4c1167d2f]
link jsClone to bs--><g id="link_jsClone_bs"><path d="M159.98,365.3283 C168.5,392.8983 183.26,440.6483 193.38,473.3583 " fill="none" id="jsClone-bs" style="stroke:#181818;stroke-width:1.0;stroke-dasharray:7.0,7.0;"/><polygon fill="#181818" points="194.96,478.4783,196.1302,468.6992,193.4866,473.7003,188.4854,471.0567,194.96,478.4783" style="stroke:#181818;stroke-width:1.0;"/><polygon fill="#181818" points="158.5,360.5283,157.3216,370.3064,159.9694,365.3075,164.9683,367.9553,158.5,360.5283" style="stroke:#181818;stroke-width:1.0;"/><text fill="#000000" font-family="sans-serif" font-size="13" lengthAdjust="spacing" textLength="66" x="178.23" y="406.0566">«optional»</text><text fill="#000000" font-family="sans-serif" font-size="13" lengthAdjust="spacing" textLength="43" x="189.73" y="421.3672">persist</text></g><!--MD5=[29d8691a05717b6aabe91f7843b0d265]
link form to jsClone--><g id="link_form_jsClone"><path d="M153.23,167.5883 C153.23,205.1883 153.23,281.2083 153.23,319.0383 " fill="none" id="form-jsClone" style="stroke:#181818;stroke-width:1.0;"/><polygon fill="#181818" points="153.23,324.3383,157.23,315.3383,153.23,319.3383,149.23,315.3383,153.23,324.3383" style="stroke:#181818;stroke-width:1.0;"/><polygon fill="#181818" points="153.23,162.5383,149.23,171.5383,153.23,167.5383,157.23,171.5383,153.23,162.5383" style="stroke:#181818;stroke-width:1.0;"/><text fill="#000000" font-family="sans-serif" font-size="13" lengthAdjust="spacing" textLength="11" x="154.23" y="206.0566">JS</text></g><!--MD5=[b5d73c6b4d1a65fad6a83a67faa4f254]
link form to app--><g id="link_form_app"><path d="M176.56,166.1583 C192.76,180.5383 214.83,200.1483 234.23,217.4883 C274.75,253.6983 321.79,296.0383 349.17,320.6983 " fill="none" id="form-app" style="stroke:#181818;stroke-width:1.0;"/><polygon fill="#181818" points="353.06,324.2083,349.0462,315.2144,349.3435,320.8635,343.6945,321.1608,353.06,324.2083" style="stroke:#181818;stroke-width:1.0;"/><polygon fill="#181818" points="172.57,162.6283,176.6392,171.5972,176.307,165.9501,181.9541,165.6179,172.57,162.6283" style="stroke:#181818;stroke-width:1.0;"/></g><!--MD5=[bc459eb6e89c92b9f8407d6506ef7530]
link app to gw--><g id="link_app_gw"><path d="M359.41,365.2683 C349.71,382.8083 336.97,408.4283 330.23,432.4883 C329.1213,436.4495 328.1638,440.5658 327.3371,444.7414 C327.1305,445.7853 326.932,446.8329 326.7414,447.8828 C326.7176,448.014 326.6939,448.1453 326.6703,448.2766 " fill="none" id="app-gw" style="stroke:#181818;stroke-width:1.0;"/><polygon fill="#181818" points="326.6703,448.2766,332.1983,440.1254,327.5542,443.3553,324.3243,438.7112,326.6703,448.2766" style="stroke:#181818;stroke-width:1.0;"/><polygon fill="#181818" points="362.05,360.5383,354.1678,366.4435,359.6109,364.903,361.1514,370.3461,362.05,360.5383" style="stroke:#181818;stroke-width:1.0;"/><text fill="#000000" font-family="sans-serif" font-size="13" lengthAdjust="spacing" textLength="71" x="346.23" y="413.5566">JSON/HTTP</text></g><!--MD5=[20be0b36ad2a09869ee41a81117c6df7]
link app to DB_TABLE--><g id="link_app_DB_TABLE"><path d="M427.49,342.4883 C486.64,342.4883 545.79,342.4883 604.95,342.4883 " fill="none" id="app-DB_TABLE" style="stroke:#181818;stroke-width:1.0;"/><polygon fill="#181818" points="610.3,342.4883,601.3,338.4883,605.3,342.4883,601.3,346.4883,610.3,342.4883" style="stroke:#181818;stroke-width:1.0;"/><polygon fill="#181818" points="422.35,342.4883,431.35,346.4883,427.35,342.4883,431.35,338.4883,422.35,342.4883" style="stroke:#181818;stroke-width:1.0;"/></g><!--MD5=[b7b3ace60266d94eedb740e624029364]
link jsClone to remotes--><g id="link_jsClone_remotes"><path d="M114.24,363.1183 C88.88,378.2583 57.88,401.7883 43.23,432.4883 C17.96,485.4383 6,519.1483 43.23,564.4883 C80.22,609.5283 239.37,628.5083 341.41,636.1683 " fill="none" id="jsClone-remotes" style="stroke:#181818;stroke-width:1.0;"/><polygon fill="#181818" points="346.52,636.5483,337.842,631.8907,341.5338,636.1768,337.2477,639.8686,346.52,636.5483" style="stroke:#181818;stroke-width:1.0;"/><polygon fill="#181818" points="118.58,360.5783,108.7927,361.6781,114.2663,363.1065,112.8379,368.5801,118.58,360.5783" style="stroke:#181818;stroke-width:1.0;"/><text fill="#000000" font-family="sans-serif" font-size="13" lengthAdjust="spacing" textLength="47" x="44.23" y="514.5566">pubsub</text></g><!--MD5=[53b28f2b01454b1ad64b56d8d602b331]
link gwClone to volume--><g id="link_gwClone_volume"><path d="M480.62,530.6883 C509.53,553.6983 556.79,591.3083 587.96,616.0983 " fill="none" id="gwClone-volume" style="stroke:#181818;stroke-width:1.0;"/><polygon fill="#181818" points="592.06,619.3683,587.5076,610.6347,588.1473,616.2553,582.5267,616.895,592.06,619.3683" style="stroke:#181818;stroke-width:1.0;"/><polygon fill="#181818" points="476.67,527.5483,481.2224,536.2819,480.5827,530.6613,486.2033,530.0216,476.67,527.5483" style="stroke:#181818;stroke-width:1.0;"/><text fill="#000000" font-family="sans-serif" font-size="13" lengthAdjust="spacing" textLength="43" x="553.23" y="586.0566">persist</text></g><!--MD5=[02f84000029a53bf67aa889dafcdbf73]
link gwClone to remotes--><g id="link_gwClone_remotes"><path d="M450.85,532.4783 C446.05,556.5583 438.41,594.9383 433.61,619.0183 " fill="none" id="gwClone-remotes" style="stroke:#181818;stroke-width:1.0;"/><polygon fill="#181818" points="432.63,623.9283,438.2994,615.8748,433.5996,619.0232,430.4512,614.3234,432.63,623.9283" style="stroke:#181818;stroke-width:1.0;"/><polygon fill="#181818" points="451.83,527.5483,446.1336,535.5827,450.8439,532.4501,453.9765,537.1604,451.83,527.5483" style="stroke:#181818;stroke-width:1.0;"/><text fill="#000000" font-family="sans-serif" font-size="13" lengthAdjust="spacing" textLength="47" x="443.23" y="586.0566">pubsub</text></g><!--MD5=[e83716a7f4b2f60183d1fb1c0c444fbb]
@startuml
'https://plantuml.com/component-diagram
skinparam componentStyle rectangle

title Web App with Database and Sidecar Gateway

node Browser {
  database "Browser\nStorage" as bs
  component page {
    component "m-ld clone" as jsClone #lightyellow
    jsClone <..> bs : <<optional>>\npersist
    component "Form Controller" as form
    form <- -> jsClone : JS
  }
}

node "App Service Tier" {
  component "App Service\nContainer" {
    component [App Service] as app
  }
  component "m-ld Gateway" as gw #lightgreen {
    component "m-ld clone" as gwClone #lightyellow
    component "m-ld remotes service" as remotes #lightyellow
  }
}

database volume #lightyellow

database "App Database" {
  [DB_TABLE]
}
note bottom
The database is the
source of truth for
the application
end note

form <- -> app
app <- -> gw : JSON/HTTP
app <-> DB_TABLE
jsClone <- -> remotes : pubsub
gwClone <- -> volume : persist
gwClone <- -> remotes : pubsub

@enduml

@startuml
skinparam componentStyle rectangle

title Web App with Database and Sidecar Gateway

node Browser {
  database "Browser\nStorage" as bs
  component page {
    component "m-ld clone" as jsClone #lightyellow
    jsClone <..> bs : <<optional>>\npersist
    component "Form Controller" as form
    form <- -> jsClone : JS
  }
}

node "App Service Tier" {
  component "App Service\nContainer" {
    component [App Service] as app
  }
  component "m-ld Gateway" as gw #lightgreen {
    component "m-ld clone" as gwClone #lightyellow
    component "m-ld remotes service" as remotes #lightyellow
  }
}

database volume #lightyellow

database "App Database" {
  [DB_TABLE]
}
note bottom
The database is the
source of truth for
the application
end note

form <- -> app
app <- -> gw : JSON/HTTP
app <-> DB_TABLE
jsClone <- -> remotes : pubsub
gwClone <- -> volume : persist
gwClone <- -> remotes : pubsub

@enduml

PlantUML version 1.2022.8(Sun Sep 25 10:00:33 BST 2022)
(GPL source distribution)
Java Runtime: OpenJDK Runtime Environment
JVM: OpenJDK 64-Bit Server VM
Default Encoding: UTF-8
Language: en
Country: GB
--></g></svg>